PathFileType	4	(X/Y/Z)	OpenSim_Sub09_CSBaseline_Gyro.trc
DataRate	CameraRate	NumFrames	NumMarkers	Units	OrigDataRate	OrigDataStartFrame	OrigNumFrames
100	100	28	8	m	100	1	5840
Frame#	Time	torso_imu_offset_imu	pelvis_imu_offset_imu	tibia_r_imu_offset_imu	femur_r_imu_offset_imu	tibia_l_imu_offset_imu	femur_l_imu_offset_imu	toes_r_imu_offset_imu	toes_l_imu_offset_imu
				X1	Y1	Z1	X2	Y2	Z2	X3	Y3	Z3	X4	Y4	Z4	X5	Y5	Z5	X6	Y6	Z6	X7	Y7	Z7	X8		Y8	Z8	

1	0	0.06223877	-0.04764115	0.09303111	0.02457175	0.00834365	-0.02590216	0.01690544	0.04150588	0.01548016	0.04043802	0.02674128	-0.01264591	0.06030990	-0.01555959	-0.00183873	0.02527121	-0.04096355	0.00812514	0.00703231	0.00567589	-0.00378302	0.00877302	0.01281371	-0.00769108
2	0.01000000	0.06353064	-0.04566178	0.10105428	0.02477937	0.00849858	-0.02276972	0.01200844	0.03699441	0.01717200	0.04785831	0.02995872	-0.01574505	0.04039702	-0.01657565	-0.00638290	0.02509031	-0.03754245	0.01226102	0.00699644	0.00756875	-0.00486530	0.00528075	0.01195578	-0.00621633
3	0.02000000	0.06322849	-0.04656583	0.10413949	0.02729270	0.00894718	-0.02084411	0.00673664	0.03019340	0.01899099	0.05218067	0.03088668	-0.01905715	0.02381785	-0.01695556	-0.00220280	0.02195868	-0.03382592	0.01077248	0.00295793	0.00705217	-0.00051960	0.00596695	0.01168779	-0.00616458
4	0.03000000	0.06001366	-0.04105739	0.10674574	0.02612691	0.00934470	-0.02273452	-0.00372965	0.02391154	0.00993534	0.04907270	0.03360014	-0.01756904	0.01650094	-0.01697552	-0.00173466	0.02440143	-0.02722340	0.01159938	0.00384828	0.00579523	-0.00124609	0.00344150	0.01534027	-0.00620576
5	0.04000000	0.05952666	-0.04033674	0.10455866	0.03134093	0.01661485	-0.01986831	-0.01250915	0.01037327	0.01112421	0.04490473	0.02965262	-0.01883993	0.00833179	-0.01735090	-0.00518871	0.02007800	-0.02127729	0.00136341	0.00043335	0.00882494	0.00064162	0.00405546	0.01181742	0.00128314
6	0.05000000	0.05898836	-0.04227286	0.09952155	0.03711894	0.01942576	-0.02219556	-0.01760787	0.01246386	0.00622839	0.03579295	0.02607874	-0.02081194	0.02588425	-0.00669941	-0.00181476	0.01885165	-0.01103899	-0.00430336	0.00401099	0.00576656	0.00471228	-0.00098170	0.01175101	-0.00153114
7	0.06000000	0.05269360	-0.04494446	0.09577012	0.04098800	0.01333620	-0.02434799	-0.01860319	0.00797926	0.00913303	0.02341789	0.02545733	-0.01398118	0.04500212	-0.01057016	0.00085817	0.01604265	-0.01380187	-0.00964507	-0.00058565	0.00404102	0.00136870	-0.00149126	0.01092934	0.00201636
8	0.07000000	0.04258897	-0.05097731	0.08998231	0.04581389	0.01109150	-0.02219019	-0.00681146	0.01201451	0.00216125	0.01186273	0.02765601	-0.01405340	0.03673838	-0.00733053	0.00581307	0.01337817	-0.01748460	-0.01945518	0.00584937	0.00773543	-0.00191077	0.00061494	0.01223622	0.00086741
9	0.08000000	0.03825645	-0.05833773	0.08369335	0.04830081	0.00829959	-0.02157958	0.01431829	0.01666503	-0.00186834	0.00298166	0.03334207	-0.01091624	0.02023249	-0.00820477	0.00899857	0.01181966	-0.01621339	-0.01927968	0.00545276	0.00788866	-0.00018843	0.00149855	0.01080537	-0.00202168
10	0.09000000	0.02916585	-0.06177145	0.08605615	0.04915046	0.00691294	-0.02734897	0.02492912	0.02215316	-0.00567674	0.00725236	0.04085565	-0.00885080	0.01250184	-0.00977748	0.01476180	0.01142542	-0.01508620	-0.02276760	0.00303420	0.00833184	-0.00324223	0.00218281	0.01067477	-0.00109007
11	0.10000000	0.02090251	-0.06671540	0.08789968	0.04386258	0.00834305	-0.03164004	0.03102449	0.02062344	-0.00496262	0.01798910	0.03629618	-0.00459500	0.00881076	-0.01103139	0.01260041	0.00822904	-0.01256395	-0.02270704	0.00449570	0.00665867	-0.00326299	0.00276234	0.00923071	-0.00025143
12	0.11000000	0.02390037	-0.06823817	0.08061921	0.03782364	0.00639730	-0.03246410	0.03891800	0.02025013	-0.00137179	0.02628291	0.03791177	0.00104552	0.01534348	-0.01656346	0.01381007	0.00362904	-0.00732565	-0.02105485	0.00499194	-0.00005930	-0.00345432	0.00091887	0.00867103	-0.00330918
13	0.12000000	0.01474339	-0.06493041	0.07916079	0.03919117	0.01286968	-0.03135081	0.02543627	0.02018429	0.00891461	0.03495961	0.03236524	-0.00037547	0.01012180	-0.01571099	0.01647355	0.00652834	-0.00143666	-0.02575531	0.00491868	0.00169094	-0.00949247	0.00405763	0.00741999	0.00096858
14	0.13000000	0.01328936	-0.06794141	0.07014242	0.03530895	0.01015815	-0.03761110	0.01354447	0.02003610	0.00614502	0.04309843	0.03130271	0.00314329	0.00498795	-0.00701112	0.02651337	0.00149029	0.00366055	-0.02165655	0.00579152	0.00093402	-0.00208219	0.00000990	0.01037024	0.00324592
15	0.14000000	0.01204966	-0.06771255	0.06690856	0.04625133	0.01212889	-0.03367535	0.00242362	0.02006839	0.00206689	0.04661707	0.02837560	0.00272374	0.00739006	-0.01425711	0.02496005	0.00769982	0.00094208	-0.02463337	-0.00209373	0.00055332	-0.00153789	-0.00055704	0.00951193	0.00080945
16	0.15000000	0.01138411	-0.07411099	0.06290218	0.05223634	0.01269887	-0.03680563	0.00938115	0.02438600	0.00899590	0.03688759	0.02309705	-0.00552288	0.01271628	-0.02068688	0.02877885	0.00379177	-0.00023612	-0.02904794	0.00564486	0.00506006	-0.00211248	0.00024675	0.00751419	0.00385741
17	0.16000000	0.00756741	-0.07275828	0.05356188	0.05320455	0.01879606	-0.03465426	0.01975294	0.01850702	0.00900372	0.02140495	0.01949328	-0.01281437	0.01400985	-0.01896719	0.02735122	0.00680445	0.00066627	-0.02794335	0.00149096	0.00392835	-0.00145343	-0.00043940	0.00878464	0.00326365
18	0.17000000	0.00533683	-0.07360793	0.04983310	0.05302673	0.02653278	-0.03121100	0.00759135	0.01610623	0.00895824	0.00345178	0.02104448	-0.01889750	0.01459475	-0.01064949	0.03196982	0.01069172	0.00049087	-0.03225961	0.00234284	0.00770764	0.00106909	-0.00209888	0.00921259	0.00352109
19	0.18000000	0.00567682	-0.07034580	0.04295424	0.05155035	0.03230700	-0.02734057	0.00061208	0.01561519	0.00927632	-0.01828492	0.02566583	-0.02054196	0.00639623	-0.01406201	0.03369000	0.00751558	0.00005231	-0.03021655	0.00420914	0.00660904	-0.00097335	-0.00000198	0.00880268	0.00278295
20	0.19000000	0.00665295	-0.07077819	0.03483365	0.05051699	0.03726229	-0.02752730	0.00119982	0.01628046	0.00609206	-0.03135676	0.02843404	-0.02387721	-0.00142064	-0.01438361	0.03160043	0.00848514	0.00651211	-0.02778329	0.00095678	0.00654796	-0.00127761	0.00133798	0.01088592	-0.00007059
21	0.20000000	0.00923806	-0.06596506	0.03192612	0.04868187	0.04078201	-0.02187920	-0.00740221	0.02175348	0.00534084	-0.05372202	0.03584685	-0.02527080	-0.00320370	-0.00843167	0.03508370	0.00987760	0.00394378	-0.02877439	0.00170856	0.00578384	-0.00109024	-0.00068880	0.00629134	0.00289654
22	0.21000000	0.00466668	-0.06455780	0.02204929	0.05052198	0.04025272	-0.02371062	-0.02422830	0.00936946	0.01328965	-0.05910576	0.03044013	-0.02809295	0.00081007	0.00711385	0.03382119	0.00998052	0.00462996	-0.02242631	0.00111270	0.00117303	-0.00242508	0.00410806	0.00705224	0.00037759
23	0.22000000	0.00588492	-0.06322987	0.02017771	0.04897124	0.04424557	-0.02036458	-0.02726730	0.00727844	0.01499498	-0.05670805	0.02763002	-0.02182136	0.00778444	0.02706148	0.03120296	0.00639914	0.00822294	-0.02129860	0.00054327	0.00061529	-0.00262501	0.00254204	0.00600160	0.00288347
24	0.23000000	0.00920906	-0.06485366	0.01414529	0.04732811	0.04124942	-0.02170878	-0.01894296	0.02016056	0.01597784	-0.05853787	0.02955875	-0.02401479	-0.00345852	0.01312915	0.02841637	-0.00544874	0.00921500	-0.01583173	0.00212533	-0.00098740	-0.00283374	0.00025084	0.00735393	0.00440238
25	0.24000000	0.01580242	-0.05966687	0.00949743	0.04504846	0.04184617	-0.02111616	-0.00559614	0.02146975	0.01850770	-0.05305082	0.02857326	-0.02004897	0.00156605	-0.00088523	0.03061067	-0.01160884	0.00661915	-0.01440629	0.00012452	0.00057283	-0.00185677	0.00012299	0.00598839	0.00458077
26	0.25000000	0.01799361	-0.05573973	0.00354077	0.04116221	0.04145967	-0.02280512	0.00673227	0.02924391	0.01917450	-0.04244948	0.03118176	-0.02009617	0.00848793	0.00172359	0.03305609	-0.02511334	0.00184896	-0.01410673	-0.00022023	0.00227056	0.00229353	0.00159027	0.00733193	0.00341742
27	0.26000000	0.02002135	-0.05440873	0.00079594	0.04190736	0.04340551	-0.02034193	0.01659521	0.02967439	0.02471605	-0.03412029	0.03126942	-0.02133810	0.01995981	0.00851678	0.03099668	-0.03120117	-0.00265355	-0.01548112	-0.00162350	0.00158747	0.00086927	-0.00105748	0.00620390	0.00673675
28	0.27000000	0.02430782	-0.05621993	-0.00430629	0.03594776	0.04418734	-0.02045805	0.02688001	0.02166441	0.02153741	-0.02756960	0.03422364	-0.02545735	0.02075617	0.00571501	0.02940981	-0.03143055	-0.00602979	-0.01959185	0.00229593	0.00369457	-0.00041505	-0.00180210	0.00726041	0.00706779
